<mxfile host="app.diagrams.net" agent="Mozilla/5.0 (Windows NT 10.0; Win64; x64) AppleWebKit/537.36 (KHTML, like Gecko) Chrome/136.0.0.0 Safari/537.36" version="27.0.5">
  <diagram name="Modelo ER Veterinaria" id="EV_j7POWdt5cSocLxYPo">
    <mxGraphModel dx="703" dy="776" grid="1" gridSize="10" guides="1" tooltips="1" connect="1" arrows="1" fold="1" page="1" pageScale="1" pageWidth="827" pageHeight="1169" math="0" shadow="0">
      <root>
        <mxCell id="0" />
        <mxCell id="1" parent="0" />
        <mxCell id="sTmlgyo44CQq-hGbdVQ3-18" value="CLIENTES" style="shape=rectangle;whiteSpace=wrap;html=1;" vertex="1" parent="1">
          <mxGeometry x="394" y="170" width="100" height="40" as="geometry" />
        </mxCell>
        <mxCell id="sTmlgyo44CQq-hGbdVQ3-19" value="MASCOTAS" style="shape=rectangle;whiteSpace=wrap;html=1;" vertex="1" parent="1">
          <mxGeometry x="610" y="170" width="100" height="40" as="geometry" />
        </mxCell>
        <mxCell id="sTmlgyo44CQq-hGbdVQ3-20" value="VENTAS" style="shape=rectangle;whiteSpace=wrap;html=1;" vertex="1" parent="1">
          <mxGeometry x="393" y="360" width="100" height="40" as="geometry" />
        </mxCell>
        <mxCell id="sTmlgyo44CQq-hGbdVQ3-21" value="DETALLE_VENTA" style="shape=rectangle;whiteSpace=wrap;html=1;" vertex="1" parent="1">
          <mxGeometry x="394" y="545" width="100" height="40" as="geometry" />
        </mxCell>
        <mxCell id="sTmlgyo44CQq-hGbdVQ3-22" value="PRODUCTOS" style="shape=rectangle;whiteSpace=wrap;html=1;" vertex="1" parent="1">
          <mxGeometry x="394" y="700" width="100" height="40" as="geometry" />
        </mxCell>
        <mxCell id="sTmlgyo44CQq-hGbdVQ3-23" value="PROVEEDORES" style="shape=rectangle;whiteSpace=wrap;html=1;" vertex="1" parent="1">
          <mxGeometry x="394" y="890" width="100" height="40" as="geometry" />
        </mxCell>
        <mxCell id="sTmlgyo44CQq-hGbdVQ3-24" value="CITAS" style="shape=rectangle;whiteSpace=wrap;html=1;" vertex="1" parent="1">
          <mxGeometry x="610" y="330" width="100" height="40" as="geometry" />
        </mxCell>
        <mxCell id="sTmlgyo44CQq-hGbdVQ3-25" value="EMPLEADOS" style="shape=rectangle;whiteSpace=wrap;html=1;" vertex="1" parent="1">
          <mxGeometry x="880" y="330" width="100" height="40" as="geometry" />
        </mxCell>
        <mxCell id="sTmlgyo44CQq-hGbdVQ3-26" value="SERVICIOS" style="shape=rectangle;whiteSpace=wrap;html=1;" vertex="1" parent="1">
          <mxGeometry x="610" y="550" width="100" height="40" as="geometry" />
        </mxCell>
        <mxCell id="sTmlgyo44CQq-hGbdVQ3-27" value="tiene" style="rhombus;whiteSpace=wrap;html=1;" vertex="1" parent="1">
          <mxGeometry x="520" y="170" width="60" height="40" as="geometry" />
        </mxCell>
        <mxCell id="sTmlgyo44CQq-hGbdVQ3-28" value="1" style="endArrow=none;html=1;align=center;" edge="1" parent="1" source="sTmlgyo44CQq-hGbdVQ3-18" target="sTmlgyo44CQq-hGbdVQ3-27">
          <mxGeometry relative="1" as="geometry" />
        </mxCell>
        <mxCell id="sTmlgyo44CQq-hGbdVQ3-29" value="N" style="endArrow=none;html=1;align=center;" edge="1" parent="1" source="sTmlgyo44CQq-hGbdVQ3-19" target="sTmlgyo44CQq-hGbdVQ3-27">
          <mxGeometry relative="1" as="geometry" />
        </mxCell>
        <mxCell id="sTmlgyo44CQq-hGbdVQ3-30" value="realiza" style="rhombus;whiteSpace=wrap;html=1;" vertex="1" parent="1">
          <mxGeometry x="413" y="270" width="60" height="40" as="geometry" />
        </mxCell>
        <mxCell id="sTmlgyo44CQq-hGbdVQ3-31" value="1" style="endArrow=none;html=1;align=center;" edge="1" parent="1" source="sTmlgyo44CQq-hGbdVQ3-18" target="sTmlgyo44CQq-hGbdVQ3-30">
          <mxGeometry relative="1" as="geometry" />
        </mxCell>
        <mxCell id="sTmlgyo44CQq-hGbdVQ3-32" value="1" style="endArrow=none;html=1;align=center;exitX=0.5;exitY=0;exitDx=0;exitDy=0;" edge="1" parent="1" source="sTmlgyo44CQq-hGbdVQ3-20" target="sTmlgyo44CQq-hGbdVQ3-30">
          <mxGeometry relative="1" as="geometry">
            <mxPoint x="532" y="270" as="sourcePoint" />
          </mxGeometry>
        </mxCell>
        <mxCell id="sTmlgyo44CQq-hGbdVQ3-33" value="recibe" style="rhombus;whiteSpace=wrap;html=1;" vertex="1" parent="1">
          <mxGeometry x="630" y="240" width="60" height="40" as="geometry" />
        </mxCell>
        <mxCell id="sTmlgyo44CQq-hGbdVQ3-34" value="1" style="endArrow=none;html=1;align=center;" edge="1" parent="1" source="sTmlgyo44CQq-hGbdVQ3-19" target="sTmlgyo44CQq-hGbdVQ3-33">
          <mxGeometry relative="1" as="geometry" />
        </mxCell>
        <mxCell id="sTmlgyo44CQq-hGbdVQ3-35" value="N" style="endArrow=none;html=1;align=center;exitX=0.5;exitY=0;exitDx=0;exitDy=0;" edge="1" parent="1" source="sTmlgyo44CQq-hGbdVQ3-24" target="sTmlgyo44CQq-hGbdVQ3-33">
          <mxGeometry relative="1" as="geometry">
            <mxPoint x="748" y="270" as="sourcePoint" />
          </mxGeometry>
        </mxCell>
        <mxCell id="sTmlgyo44CQq-hGbdVQ3-36" value="compone" style="rhombus;whiteSpace=wrap;html=1;" vertex="1" parent="1">
          <mxGeometry x="414" y="620" width="60" height="40" as="geometry" />
        </mxCell>
        <mxCell id="sTmlgyo44CQq-hGbdVQ3-37" value="N" style="endArrow=none;html=1;align=center;" edge="1" parent="1" source="sTmlgyo44CQq-hGbdVQ3-21" target="sTmlgyo44CQq-hGbdVQ3-36">
          <mxGeometry relative="1" as="geometry" />
        </mxCell>
        <mxCell id="sTmlgyo44CQq-hGbdVQ3-38" value="1" style="endArrow=none;html=1;align=center;" edge="1" parent="1" source="sTmlgyo44CQq-hGbdVQ3-22" target="sTmlgyo44CQq-hGbdVQ3-36">
          <mxGeometry relative="1" as="geometry" />
        </mxCell>
        <mxCell id="sTmlgyo44CQq-hGbdVQ3-39" value="se programa" style="rhombus;whiteSpace=wrap;html=1;" vertex="1" parent="1">
          <mxGeometry x="630" y="450" width="60" height="40" as="geometry" />
        </mxCell>
        <mxCell id="sTmlgyo44CQq-hGbdVQ3-40" value="1" style="endArrow=none;html=1;align=center;" edge="1" parent="1" source="sTmlgyo44CQq-hGbdVQ3-26" target="sTmlgyo44CQq-hGbdVQ3-39">
          <mxGeometry relative="1" as="geometry" />
        </mxCell>
        <mxCell id="sTmlgyo44CQq-hGbdVQ3-41" value="N" style="endArrow=none;html=1;align=center;" edge="1" parent="1" source="sTmlgyo44CQq-hGbdVQ3-24" target="sTmlgyo44CQq-hGbdVQ3-39">
          <mxGeometry relative="1" as="geometry" />
        </mxCell>
        <mxCell id="sTmlgyo44CQq-hGbdVQ3-42" value="realiza" style="rhombus;whiteSpace=wrap;html=1;" vertex="1" parent="1">
          <mxGeometry x="760" y="330" width="60" height="40" as="geometry" />
        </mxCell>
        <mxCell id="sTmlgyo44CQq-hGbdVQ3-43" value="1" style="endArrow=none;html=1;align=center;" edge="1" parent="1" source="sTmlgyo44CQq-hGbdVQ3-25" target="sTmlgyo44CQq-hGbdVQ3-42">
          <mxGeometry relative="1" as="geometry" />
        </mxCell>
        <mxCell id="sTmlgyo44CQq-hGbdVQ3-44" value="1" style="endArrow=none;html=1;align=center;" edge="1" parent="1" source="sTmlgyo44CQq-hGbdVQ3-24" target="sTmlgyo44CQq-hGbdVQ3-42">
          <mxGeometry relative="1" as="geometry" />
        </mxCell>
        <mxCell id="sTmlgyo44CQq-hGbdVQ3-45" value="Tiene" style="rhombus;whiteSpace=wrap;html=1;" vertex="1" parent="1">
          <mxGeometry x="414" y="450" width="60" height="40" as="geometry" />
        </mxCell>
        <mxCell id="sTmlgyo44CQq-hGbdVQ3-46" value="1" style="endArrow=none;html=1;align=center;" edge="1" parent="1" source="sTmlgyo44CQq-hGbdVQ3-20" target="sTmlgyo44CQq-hGbdVQ3-45">
          <mxGeometry relative="1" as="geometry" />
        </mxCell>
        <mxCell id="sTmlgyo44CQq-hGbdVQ3-47" value="N" style="endArrow=none;html=1;align=center;" edge="1" parent="1" source="sTmlgyo44CQq-hGbdVQ3-21" target="sTmlgyo44CQq-hGbdVQ3-45">
          <mxGeometry relative="1" as="geometry" />
        </mxCell>
        <mxCell id="sTmlgyo44CQq-hGbdVQ3-48" value="Poseen" style="rhombus;whiteSpace=wrap;html=1;" vertex="1" parent="1">
          <mxGeometry x="414" y="790" width="60" height="40" as="geometry" />
        </mxCell>
        <mxCell id="sTmlgyo44CQq-hGbdVQ3-49" value="N" style="endArrow=none;html=1;align=center;" edge="1" parent="1" source="sTmlgyo44CQq-hGbdVQ3-22" target="sTmlgyo44CQq-hGbdVQ3-48">
          <mxGeometry relative="1" as="geometry" />
        </mxCell>
        <mxCell id="sTmlgyo44CQq-hGbdVQ3-50" value="1" style="endArrow=none;html=1;align=center;" edge="1" parent="1" source="sTmlgyo44CQq-hGbdVQ3-23" target="sTmlgyo44CQq-hGbdVQ3-48">
          <mxGeometry relative="1" as="geometry" />
        </mxCell>
        <mxCell id="sTmlgyo44CQq-hGbdVQ3-51" value="(1:1)" style="text;html=1;align=center;verticalAlign=middle;resizable=0;points=[];autosize=1;strokeColor=none;fillColor=none;" vertex="1" parent="1">
          <mxGeometry x="765" y="288" width="50" height="30" as="geometry" />
        </mxCell>
        <mxCell id="sTmlgyo44CQq-hGbdVQ3-52" value="(1:N)" style="text;html=1;align=center;verticalAlign=middle;resizable=0;points=[];autosize=1;strokeColor=none;fillColor=none;" vertex="1" parent="1">
          <mxGeometry x="700" y="245" width="50" height="30" as="geometry" />
        </mxCell>
        <mxCell id="sTmlgyo44CQq-hGbdVQ3-53" value="(1:N)" style="text;html=1;align=center;verticalAlign=middle;resizable=0;points=[];autosize=1;strokeColor=none;fillColor=none;" vertex="1" parent="1">
          <mxGeometry x="525" y="140" width="50" height="30" as="geometry" />
        </mxCell>
        <mxCell id="sTmlgyo44CQq-hGbdVQ3-54" value="(1:N)" style="text;html=1;align=center;verticalAlign=middle;resizable=0;points=[];autosize=1;strokeColor=none;fillColor=none;" vertex="1" parent="1">
          <mxGeometry x="470" y="455" width="50" height="30" as="geometry" />
        </mxCell>
        <mxCell id="sTmlgyo44CQq-hGbdVQ3-55" value="(1:N)" style="text;html=1;align=center;verticalAlign=middle;resizable=0;points=[];autosize=1;strokeColor=none;fillColor=none;" vertex="1" parent="1">
          <mxGeometry x="474" y="795" width="50" height="30" as="geometry" />
        </mxCell>
        <mxCell id="sTmlgyo44CQq-hGbdVQ3-56" value="(1:N)" style="text;html=1;align=center;verticalAlign=middle;resizable=0;points=[];autosize=1;strokeColor=none;fillColor=none;" vertex="1" parent="1">
          <mxGeometry x="480" y="625" width="50" height="30" as="geometry" />
        </mxCell>
        <mxCell id="sTmlgyo44CQq-hGbdVQ3-57" value="(1:1)" style="text;html=1;align=center;verticalAlign=middle;resizable=0;points=[];autosize=1;strokeColor=none;fillColor=none;" vertex="1" parent="1">
          <mxGeometry x="490" y="275" width="50" height="30" as="geometry" />
        </mxCell>
        <mxCell id="sTmlgyo44CQq-hGbdVQ3-59" value="(1:N)" style="text;html=1;align=center;verticalAlign=middle;resizable=0;points=[];autosize=1;strokeColor=none;fillColor=none;" vertex="1" parent="1">
          <mxGeometry x="700" y="455" width="50" height="30" as="geometry" />
        </mxCell>
      </root>
    </mxGraphModel>
  </diagram>
</mxfile>
